<svg width="25" height="21" viewBox="0 0 25 21" fill="none" xmlns="http://www.w3.org/2000/svg">
<path d="M8.89068 2.21853C9.53824 2.25569 10.8758 2.537 11.6667 2.79178C12.8026 3.16333 14.1455 3.8215 15.2442 4.54868L15.844 4.94146L16.2421 4.90431C16.7994 4.85123 17.4523 4.89369 18.0839 5.01046C18.413 5.07416 19.1667 5.12724 20.5149 5.17501C22.0223 5.22808 23.0149 5.32893 23.5934 5.47755C24.1083 5.60494 24.4374 5.94464 24.6019 6.50197C24.8726 7.39369 25.0266 8.96481 24.9841 10.2705C24.9204 11.9266 24.5701 14.5752 24.3472 15.0211C24.1667 15.382 23.9597 15.4988 23.5244 15.4722C23.328 15.4616 23.0892 15.4298 22.999 15.3979C22.7017 15.313 22.2399 15.3714 21.6561 15.5678C20.6794 15.8969 20.2654 15.9765 19.4533 15.9977C18.6784 16.019 18.1476 15.8916 17.0117 15.4086C16.534 15.2069 16.534 15.2069 15.7909 15.2069C15.0796 15.2122 13.5351 15.2812 13.482 15.313C13.4661 15.3236 13.2219 15.3449 12.9353 15.3661C12.6539 15.382 12.3779 15.4086 12.3249 15.4139C12.2771 15.4245 12.0701 15.451 11.8737 15.4722C11.6773 15.4882 11.4703 15.5147 11.4225 15.5253C11.3694 15.5359 11.1677 15.5572 10.9767 15.5731C10.7803 15.5943 10.5786 15.6156 10.5255 15.6262C10.4724 15.6368 10.2973 15.6633 10.138 15.6846C9.59662 15.7536 9.47454 15.7695 9.18261 15.8173C9.02337 15.8438 8.78452 15.8809 8.65182 15.8969C8.51913 15.9128 8.35458 15.934 8.28028 15.95C8.00427 16.003 7.5531 16.0773 7.32486 16.1039C7.19216 16.1251 7.02231 16.1463 6.93739 16.1623C6.58176 16.226 6.48622 16.2419 6.16244 16.279C5.70066 16.3321 4.08176 16.3321 3.74206 16.279C3.05734 16.1729 2.24524 15.8916 2.017 15.6952C1.47029 15.2122 0.822737 13.7047 0.743118 12.7122C0.721888 12.4202 0.674116 11.9054 0.642269 11.571C0.557343 10.6474 0.546728 10.1007 0.594498 9.0232C0.642269 7.82363 0.705963 7.38307 0.91297 6.7939C1.48091 5.17501 2.59025 3.87458 4.03399 3.13679C4.79832 2.74932 5.64227 2.468 6.34291 2.36184C6.46499 2.34592 6.61361 2.32469 6.68261 2.30876C7.06478 2.23445 8.35458 2.18138 8.89068 2.21853ZM17.5319 13.726C17.5159 13.7684 17.5159 13.8162 17.5319 13.8321C17.5425 13.848 18.6465 13.8746 19.9841 13.8905C22.3514 13.9224 22.4098 13.9224 22.3886 13.8215C22.3726 13.726 22.2983 13.7207 20.7007 13.7047C19.7824 13.6994 18.9066 13.6888 18.7633 13.6782C17.7973 13.6357 17.5637 13.641 17.5319 13.726Z" fill="white"/>
</svg>
