<svg width="25" height="21" viewBox="0 0 25 21" fill="none" xmlns="http://www.w3.org/2000/svg">
<path d="M16.1093 2.21853C15.4618 2.25569 14.1242 2.537 13.3333 2.79178C12.1974 3.16333 10.8545 3.8215 9.75582 4.54868L9.15603 4.94146L8.75794 4.90431C8.20062 4.85123 7.54775 4.89369 6.91611 5.01046C6.58703 5.07416 5.83331 5.12724 4.48512 5.17501C2.97768 5.22808 1.98512 5.32893 1.40656 5.47755C0.891697 5.60494 0.56261 5.94464 0.398067 6.50197C0.127366 7.39369 -0.0265618 8.96481 0.0159011 10.2705C0.0795953 11.9266 0.429914 14.5752 0.652844 15.0211C0.833311 15.382 1.04032 15.4988 1.47556 15.4722C1.67195 15.4616 1.91081 15.4298 2.00104 15.3979C2.29828 15.313 2.76006 15.3714 3.34393 15.5678C4.32057 15.8969 4.73459 15.9765 5.54669 15.9977C6.32163 16.019 6.85242 15.8916 7.9883 15.4086C8.46601 15.2069 8.46601 15.2069 9.20911 15.2069C9.92036 15.2122 11.4649 15.2812 11.518 15.313C11.5339 15.3236 11.7781 15.3449 12.0647 15.3661C12.3461 15.382 12.6221 15.4086 12.6751 15.4139C12.7229 15.4245 12.9299 15.451 13.1263 15.4722C13.3227 15.4882 13.5297 15.5147 13.5775 15.5253C13.6306 15.5359 13.8323 15.5572 14.0233 15.5731C14.2197 15.5943 14.4214 15.6156 14.4745 15.6262C14.5276 15.6368 14.7027 15.6633 14.862 15.6846C15.4034 15.7536 15.5255 15.7695 15.8174 15.8173C15.9766 15.8438 16.2155 15.8809 16.3482 15.8969C16.4809 15.9128 16.6454 15.934 16.7197 15.95C16.9957 16.003 17.4469 16.0773 17.6751 16.1039C17.8078 16.1251 17.9777 16.1463 18.0626 16.1623C18.4182 16.226 18.5138 16.2419 18.8376 16.279C19.2993 16.3321 20.9182 16.3321 21.2579 16.279C21.9427 16.1729 22.7548 15.8916 22.983 15.6952C23.5297 15.2122 24.1773 13.7047 24.2569 12.7122C24.2781 12.4202 24.3259 11.9054 24.3577 11.571C24.4427 10.6474 24.4533 10.1007 24.4055 9.0232C24.3577 7.82363 24.294 7.38307 24.087 6.7939C23.5191 5.17501 22.4097 3.87458 20.966 3.13679C20.2017 2.74932 19.3577 2.468 18.6571 2.36184C18.535 2.34592 18.3864 2.32469 18.3174 2.30876C17.9352 2.23445 16.6454 2.18138 16.1093 2.21853ZM7.46813 13.726C7.48406 13.7684 7.48406 13.8162 7.46813 13.8321C7.45752 13.848 6.35348 13.8746 5.0159 13.8905C2.6486 13.9224 2.59021 13.9224 2.61144 13.8215C2.62737 13.726 2.70168 13.7207 4.29934 13.7047C5.2176 13.6994 6.0934 13.6888 6.23671 13.6782C7.20274 13.6357 7.43628 13.641 7.46813 13.726Z" fill="white"/>
</svg>
