<svg width="299" height="14" viewBox="0 0 299 14" fill="none" xmlns="http://www.w3.org/2000/svg">
<path d="M1.7049 1.00956C3.68559 1.29663 5.13976 1.87077 5.13976 2.34053C5.11469 2.52321 4.51296 3.12345 3.81095 3.6715C2.38184 4.7154 -0.325936 7.48173 0.50144 7.03808C0.777233 6.88149 1.35389 6.38564 1.75504 5.94198C2.93343 4.6632 5.66628 2.6276 7.27089 1.87077C9.12622 0.983459 11.6836 0.879068 13.4887 1.6098C14.1406 1.87077 14.6671 2.18394 14.617 2.28833C14.5668 2.39272 13.94 2.96687 13.213 3.54101C12.4859 4.08906 11.1821 5.26345 10.3297 6.12466C8.17348 8.26466 5.44063 10.6656 4.3876 11.3442C3.91124 11.6573 2.78299 12.1532 1.8804 12.4664C0.977809 12.7795 0.200576 13.0927 0.12536 13.171C-0.150432 13.4842 2.05591 12.91 2.9585 12.4403L3.91124 11.9183L5.51584 12.5968C7.89769 13.5885 10.455 13.432 12.8118 12.1793C13.238 11.9444 13.564 12.0227 14.4415 12.4925C15.9959 13.3537 19.481 13.3798 21.3363 12.5446L22.615 11.9705L24.1945 12.649C25.5735 13.2232 26.0498 13.3015 27.6795 13.171C28.8328 13.1188 30.0614 12.8317 30.7884 12.4925L31.9919 11.9444L33.0449 12.5185C33.7469 12.8839 34.7248 13.1188 35.9784 13.1971C37.608 13.3015 38.1095 13.2232 39.5386 12.6229L41.1683 11.9444L42.5221 12.5968C44.3524 13.4842 46.6089 13.4842 48.8904 12.6229L50.5201 11.9966L52.0746 12.649C53.4034 13.2232 53.9048 13.3015 55.5095 13.171C56.6377 13.1188 57.8913 12.8317 58.5933 12.5185L59.7466 11.9966L61.3262 12.649C62.6801 13.2232 63.1815 13.3015 64.7861 13.171C65.9143 13.1188 67.1679 12.8317 67.87 12.5185L69.0233 11.9966L70.6028 12.649C71.9567 13.2232 72.4581 13.3015 74.0628 13.171C75.2161 13.0927 76.4195 12.8317 77.1215 12.5185L78.2498 11.9705L79.7541 12.5968C81.7348 13.4581 83.7907 13.4581 85.997 12.6229L87.6267 11.9966L89.1812 12.649C90.51 13.2232 91.0114 13.3015 92.6161 13.171C93.7694 13.1188 94.9979 12.8317 95.725 12.4925L96.9284 11.9444L97.9815 12.5446C99.4858 13.3537 103.247 13.3537 105.002 12.5185L106.205 11.9444L107.258 12.5185C108.938 13.4059 111.646 13.4581 113.827 12.6229L115.582 11.9705L116.71 12.5446C118.465 13.432 121.198 13.4842 123.154 12.649L124.708 11.9966L126.263 12.649C127.617 13.2232 128.118 13.3015 129.723 13.171C130.851 13.1188 132.104 12.8317 132.807 12.5185L133.96 11.9966L135.539 12.649C136.868 13.2232 137.395 13.3015 138.999 13.1971C140.203 13.1188 141.356 12.8578 142.133 12.5185L143.362 11.9444L144.515 12.5185C145.744 13.1449 148.928 13.4842 149.63 13.0927C149.881 12.9361 149.254 12.8578 147.975 12.8317C145.969 12.8056 143.888 12.2054 144.089 11.7095C144.139 11.6051 145.192 10.6134 146.421 9.54343C148.777 7.45564 150.282 5.94198 149.956 5.94198C149.855 5.94198 148.903 6.7771 147.85 7.76881C143.964 11.5007 140.704 13.171 138.021 12.8839C136.592 12.7534 134.762 12.101 134.762 11.7356C134.762 11.6312 135.364 11.0571 136.091 10.4829C136.793 9.8827 138.322 8.49953 139.451 7.40344C140.579 6.28125 142.158 4.81979 142.986 4.14125C144.59 2.81028 147.423 1.27053 148.351 1.21834C148.677 1.19224 149.204 1.08785 149.555 0.957361C150.006 0.800776 149.83 0.748581 148.878 0.852971C148.151 0.905166 147.022 1.19224 146.37 1.50541L145.217 2.02736L144.064 1.45321C142.434 0.618093 138.949 0.618093 137.169 1.45321L135.941 2.05346L134.787 1.45321C133.132 0.591996 129.647 0.591996 127.892 1.45321L126.639 2.02736L125.511 1.45321C123.856 0.591996 120.371 0.591996 118.641 1.45321L117.412 2.05346L116.259 1.45321C114.604 0.618093 111.094 0.591996 109.389 1.42712L108.186 2.00126L107.007 1.42712C105.277 0.591996 101.817 0.618093 100.012 1.45321L98.7085 2.07955L97.6305 1.45321C96.0509 0.591996 92.5659 0.591996 90.7858 1.45321L89.5322 2.02736L88.4039 1.45321C86.7492 0.591996 83.2893 0.618093 81.459 1.45321L80.1803 2.05346L79.0772 1.45321C77.4976 0.591996 74.0126 0.591996 72.2325 1.45321L71.004 2.02736L69.8507 1.45321C68.1959 0.591996 65.0117 0.618093 63.0311 1.45321L61.602 2.05346L60.5239 1.45321C58.9443 0.591996 55.4593 0.591996 53.6792 1.45321L52.4256 2.02736L51.2974 1.45321C49.6426 0.591996 46.1576 0.591996 44.4025 1.45321L43.1489 2.02736L42.0207 1.45321C40.366 0.591996 36.906 0.618093 35.0507 1.45321C33.8974 2.00126 33.7219 2.02736 33.1703 1.68809C31.4152 0.539801 28.0807 0.461509 25.7991 1.47931L24.4954 2.07955L23.4173 1.45321C21.8377 0.591996 18.3778 0.591996 16.4974 1.47931C15.5697 1.89687 15.0683 2.00126 14.8677 1.84468C14.6922 1.68809 13.94 1.37492 13.1879 1.11395C11.483 0.539801 9.02593 0.696386 7.24581 1.47931L5.94207 2.07955L4.86397 1.47931C4.06167 1.06175 3.23429 0.879068 1.8804 0.826874L0 0.748581L1.7049 1.00956ZM22.9409 1.66199C23.4925 1.89687 23.9438 2.18394 23.9438 2.28833C23.9438 2.39272 23.5176 2.78418 23.0161 3.12345C22.4896 3.48882 20.885 4.92418 19.4308 6.33344C14.7423 10.8222 12.2853 12.4925 9.65273 12.8578C8.27377 13.0666 5.94207 12.6229 5.24005 12.0749C4.76368 11.6834 4.76368 11.6834 5.26512 11.292C6.14265 10.5873 8.72506 8.18636 10.455 6.49003C13.4887 3.51491 16.2467 1.68809 18.4029 1.21834C19.6063 0.957361 21.7124 1.16614 22.9409 1.66199ZM32.4432 1.74028C33.421 2.26223 33.4962 2.10565 31.4403 3.77589C30.9639 4.16735 29.4095 5.60271 28.0305 6.95978C23.7432 11.0832 21.9631 12.2576 19.2553 12.7795C17.6256 13.0927 15.3441 12.7534 14.5167 12.0488C14.0654 11.6834 14.0905 11.6312 14.9179 10.9527C15.3942 10.5612 16.8985 9.17807 18.2524 7.89929C23.0412 3.33223 24.7461 2.10565 27.2282 1.37492C28.8579 0.905166 31.1645 1.06175 32.4432 1.74028ZM41.4942 1.66199C42.0458 1.89687 42.4971 2.18394 42.4971 2.28833C42.4971 2.39272 42.0709 2.78418 41.5694 3.12345C41.0429 3.48882 39.8394 4.53272 38.8616 5.47223C34.5492 9.64782 33.2706 10.6917 31.34 11.7095C28.8579 12.9883 26.7769 13.2493 24.8213 12.5446C24.1444 12.2837 23.5677 11.9444 23.5677 11.8139C23.5677 11.6573 24.37 10.8222 25.3227 9.98709C26.3006 9.12587 27.8801 7.66441 28.8328 6.69881C33.9224 1.6098 37.7083 0.0961437 41.4942 1.66199ZM50.8711 1.66199C51.3726 1.92297 51.7737 2.21004 51.7737 2.31443C51.7737 2.39272 51.3475 2.78418 50.8461 3.14955C50.3195 3.48882 48.4391 5.21125 46.659 6.93369C42.2965 11.1615 39.2377 12.9883 36.5049 12.9883C35.2763 12.9883 32.719 12.2054 32.719 11.8139C32.719 11.6573 33.421 10.9266 34.2985 10.1698C35.151 9.43904 36.3544 8.34295 36.9812 7.71661C42.3466 2.41882 45.0294 0.852971 48.4141 1.11395C49.2665 1.16614 50.3697 1.42712 50.8711 1.66199ZM60.0475 1.66199C60.5991 1.89687 61.0504 2.15785 61.0504 2.26223C61.0504 2.34053 60.5991 2.75809 60.0475 3.14955C59.4959 3.56711 58.1671 4.7415 57.1141 5.7854C56.036 6.8293 54.7071 8.08197 54.1556 8.57783C53.604 9.07368 52.8769 9.72612 52.5259 10.0654C52.1749 10.4047 50.9463 11.1615 49.8181 11.7617C47.9377 12.7273 47.5366 12.8317 45.9319 12.8317C44.0515 12.8317 42.121 12.2837 42.121 11.7878C42.121 11.6312 42.6977 11.031 43.3746 10.4568C44.0766 9.8827 45.6812 8.36905 46.985 7.09027C50.6706 3.46272 53.2028 1.71419 55.5095 1.21834C56.7129 0.957361 58.819 1.16614 60.0475 1.66199ZM69.4495 1.68809C69.9259 1.92297 70.327 2.18394 70.327 2.26223C70.327 2.34053 69.7754 2.83638 69.1486 3.33223C68.4968 3.82808 66.7919 5.39393 65.3377 6.8032C60.7997 11.1615 58.4178 12.6229 55.4593 12.8839C53.8547 13.0144 51.523 12.3881 51.3475 11.7878C51.2974 11.6312 51.8489 11.031 52.576 10.4568C53.3031 9.8827 55.1334 8.21246 56.6628 6.72491C61.1507 2.31443 63.8835 0.852971 67.0175 1.11395C67.87 1.19224 68.9731 1.45321 69.4495 1.68809ZM78.5757 1.66199C79.1524 1.89687 79.6037 2.18394 79.6037 2.28833C79.6037 2.39272 79.1774 2.78418 78.6509 3.14955C78.1244 3.48882 76.7956 4.6632 75.6924 5.7332C71.8564 9.51734 70.4273 10.6656 68.3463 11.7617C66.3907 12.7795 66.0648 12.8578 64.3348 12.8317C62.5046 12.8317 60.5489 12.2576 60.5489 11.7617C60.5489 11.6312 61.0002 11.1615 61.5518 10.7178C62.1285 10.2742 63.708 8.8127 65.112 7.48173C66.5161 6.12466 68.2711 4.50662 69.0483 3.88028C70.4524 2.73199 72.8844 1.42712 74.0878 1.16614C75.1158 0.931263 77.4725 1.19224 78.5757 1.66199ZM87.8273 1.6359C88.4039 1.87077 88.8803 2.15785 88.8803 2.26223C88.8803 2.36662 88.3538 2.86248 87.7019 3.35833C87.025 3.82808 85.3702 5.34174 83.9913 6.67271C79.6287 10.9266 77.2218 12.4925 74.4639 12.91C73.2354 13.0666 70.8535 12.5968 70.1766 12.0749C69.7253 11.7095 69.7253 11.6573 70.1515 11.3181C71.2045 10.4568 73.5864 8.29075 75.3414 6.59442C79.704 2.34053 82.3616 0.879068 85.3702 1.08785C86.1224 1.14004 87.2256 1.40102 87.8273 1.6359ZM97.1541 1.66199C97.7307 1.89687 98.157 2.18394 98.1068 2.28833C98.0567 2.41882 97.4048 3.01906 96.6276 3.6454C95.8503 4.24564 94.2457 5.7332 93.0673 6.88149C89.106 10.7439 86.8244 12.2576 84.2169 12.7795C82.5872 13.0927 80.3057 12.7534 79.4532 12.0749C79.0019 11.7095 79.027 11.6573 79.8544 10.9788C80.3308 10.5873 81.7348 9.30856 82.9382 8.16027C87.9777 3.35833 90.2843 1.71419 92.591 1.21834C93.8446 0.957361 95.9256 1.16614 97.1541 1.66199ZM106.431 1.66199C106.982 1.89687 107.434 2.18394 107.434 2.28833C107.434 2.39272 107.007 2.78418 106.506 3.14955C105.979 3.51491 104.199 5.10686 102.545 6.69881C98.157 10.9527 95.9005 12.4142 93.0673 12.8578C91.7887 13.0666 89.4319 12.6229 88.7299 12.0488C88.2786 11.6834 88.3037 11.6312 89.131 10.9527C89.6074 10.5612 91.1117 9.17807 92.4656 7.89929C97.2544 3.33223 98.9593 2.10565 101.441 1.37492C102.996 0.931263 104.926 1.03565 106.431 1.66199ZM115.682 1.66199C116.259 1.89687 116.71 2.18394 116.71 2.28833C116.71 2.39272 116.284 2.78418 115.783 3.12345C115.256 3.48882 113.902 4.6893 112.774 5.7854C107.509 10.9527 104.801 12.7012 101.843 12.8839C100.213 13.0144 97.7809 12.3359 97.7809 11.8139C97.7809 11.6573 98.5832 10.8483 99.5359 9.98709C100.514 9.15197 101.968 7.7949 102.795 6.95978C108.236 1.53151 111.846 0.0439491 115.682 1.66199ZM124.984 1.66199C125.536 1.89687 125.987 2.15785 125.987 2.26223C125.987 2.34053 125.536 2.73199 125.009 3.12345C124.157 3.74979 123.329 4.53272 119.117 8.63002C116.159 11.5007 112.573 13.1971 110.066 12.8839C108.637 12.7273 106.857 12.0488 106.982 11.7095C107.032 11.6051 107.86 10.8222 108.813 9.98709C109.79 9.15197 111.42 7.63832 112.448 6.62052C117.613 1.50541 121.198 0.0961437 124.984 1.66199ZM134.211 1.6359C134.812 1.89687 135.264 2.18394 135.213 2.28833C135.163 2.39272 134.261 3.22784 133.208 4.14125C132.155 5.05467 130.199 6.8293 128.845 8.10807C125.335 11.4225 122.427 13.0144 119.995 12.9622C118.791 12.9622 116.334 12.1271 116.334 11.7617C116.334 11.579 116.735 11.1354 117.212 10.77C117.688 10.4047 119.268 8.96929 120.697 7.56003C124.984 3.41052 127.316 1.76638 129.748 1.21834C131.001 0.931263 132.957 1.11395 134.211 1.6359ZM143.688 1.71419C144.164 1.94907 144.515 2.21004 144.49 2.31443C144.44 2.39272 143.738 3.04516 142.885 3.74979C142.058 4.45442 140.353 6.02027 139.125 7.22076C135.163 11.0832 132.706 12.5707 129.773 12.8839C128.319 13.0405 125.611 12.3359 125.611 11.7878C125.611 11.6312 126.413 10.8483 127.366 10.0132C128.344 9.17807 129.848 7.74271 130.751 6.85539C134.135 3.46272 136.417 1.92297 138.999 1.24443C140.203 0.931263 142.61 1.16614 143.688 1.71419Z" fill="white"/>
<path d="M150.705 1.00956C152.686 1.29663 154.14 1.87077 154.14 2.34053C154.115 2.52321 153.513 3.12345 152.811 3.6715C151.382 4.7154 148.674 7.48173 149.501 7.03808C149.777 6.88149 150.354 6.38564 150.755 5.94198C151.933 4.6632 154.666 2.6276 156.271 1.87077C158.126 0.983459 160.684 0.879068 162.489 1.6098C163.141 1.87077 163.667 2.18394 163.617 2.28833C163.567 2.39272 162.94 2.96687 162.213 3.54101C161.486 4.08906 160.182 5.26345 159.33 6.12466C157.173 8.26466 154.441 10.6656 153.388 11.3442C152.911 11.6573 151.783 12.1532 150.88 12.4664C149.978 12.7795 149.201 13.0927 149.125 13.171C148.85 13.4842 151.056 12.91 151.958 12.4403L152.911 11.9183L154.516 12.5968C156.898 13.5885 159.455 13.432 161.812 12.1793C162.238 11.9444 162.564 12.0227 163.441 12.4925C164.996 13.3537 168.481 13.3798 170.336 12.5446L171.615 11.9705L173.194 12.649C174.573 13.2232 175.05 13.3015 176.68 13.171C177.833 13.1188 179.061 12.8317 179.788 12.4925L180.992 11.9444L182.045 12.5185C182.747 12.8839 183.725 13.1188 184.978 13.1971C186.608 13.3015 187.109 13.2232 188.539 12.6229L190.168 11.9444L191.522 12.5968C193.352 13.4842 195.609 13.4842 197.89 12.6229L199.52 11.9966L201.075 12.649C202.403 13.2232 202.905 13.3015 204.509 13.171C205.638 13.1188 206.891 12.8317 207.593 12.5185L208.747 11.9966L210.326 12.649C211.68 13.2232 212.181 13.3015 213.786 13.171C214.914 13.1188 216.168 12.8317 216.87 12.5185L218.023 11.9966L219.603 12.649C220.957 13.2232 221.458 13.3015 223.063 13.171C224.216 13.0927 225.42 12.8317 226.122 12.5185L227.25 11.9705L228.754 12.5968C230.735 13.4581 232.791 13.4581 234.997 12.6229L236.627 11.9966L238.181 12.649C239.51 13.2232 240.011 13.3015 241.616 13.171C242.769 13.1188 243.998 12.8317 244.725 12.4925L245.928 11.9444L246.981 12.5446C248.486 13.3537 252.247 13.3537 254.002 12.5185L255.205 11.9444L256.258 12.5185C257.938 13.4059 260.646 13.4581 262.827 12.6229L264.582 11.9705L265.71 12.5446C267.465 13.432 270.198 13.4842 272.154 12.649L273.708 11.9966L275.263 12.649C276.617 13.2232 277.118 13.3015 278.723 13.171C279.851 13.1188 281.104 12.8317 281.807 12.5185L282.96 11.9966L284.539 12.649C285.868 13.2232 286.395 13.3015 287.999 13.1971C289.203 13.1188 290.356 12.8578 291.133 12.5185L292.362 11.9444L293.515 12.5185C294.744 13.1449 297.928 13.4842 298.63 13.0927C298.881 12.9361 298.254 12.8578 296.975 12.8317C294.969 12.8056 292.888 12.2054 293.089 11.7095C293.139 11.6051 294.192 10.6134 295.421 9.54343C297.777 7.45564 299.282 5.94198 298.956 5.94198C298.855 5.94198 297.903 6.7771 296.85 7.76881C292.964 11.5007 289.704 13.171 287.021 12.8839C285.592 12.7534 283.762 12.101 283.762 11.7356C283.762 11.6312 284.364 11.0571 285.091 10.4829C285.793 9.8827 287.322 8.49953 288.451 7.40344C289.579 6.28125 291.158 4.81979 291.986 4.14125C293.59 2.81028 296.423 1.27053 297.351 1.21834C297.677 1.19224 298.204 1.08785 298.555 0.957361C299.006 0.800776 298.83 0.748581 297.878 0.852971C297.151 0.905166 296.022 1.19224 295.37 1.50541L294.217 2.02736L293.064 1.45321C291.434 0.618093 287.949 0.618093 286.169 1.45321L284.941 2.05346L283.787 1.45321C282.132 0.591996 278.647 0.591996 276.892 1.45321L275.639 2.02736L274.511 1.45321C272.856 0.591996 269.371 0.591996 267.641 1.45321L266.412 2.05346L265.259 1.45321C263.604 0.618093 260.094 0.591996 258.389 1.42712L257.186 2.00126L256.007 1.42712C254.277 0.591996 250.817 0.618093 249.012 1.45321L247.709 2.07955L246.63 1.45321C245.051 0.591996 241.566 0.591996 239.786 1.45321L238.532 2.02736L237.404 1.45321C235.749 0.591996 232.289 0.618093 230.459 1.45321L229.18 2.05346L228.077 1.45321C226.498 0.591996 223.013 0.591996 221.232 1.45321L220.004 2.02736L218.851 1.45321C217.196 0.591996 214.012 0.618093 212.031 1.45321L210.602 2.05346L209.524 1.45321C207.944 0.591996 204.459 0.591996 202.679 1.45321L201.426 2.02736L200.297 1.45321C198.643 0.591996 195.158 0.591996 193.403 1.45321L192.149 2.02736L191.021 1.45321C189.366 0.591996 185.906 0.618093 184.051 1.45321C182.897 2.00126 182.722 2.02736 182.17 1.68809C180.415 0.539801 177.081 0.461509 174.799 1.47931L173.495 2.07955L172.417 1.45321C170.838 0.591996 167.378 0.591996 165.497 1.47931C164.57 1.89687 164.068 2.00126 163.868 1.84468C163.692 1.68809 162.94 1.37492 162.188 1.11395C160.483 0.539801 158.026 0.696386 156.246 1.47931L154.942 2.07955L153.864 1.47931C153.062 1.06175 152.234 0.879068 150.88 0.826874L149 0.748581L150.705 1.00956ZM171.941 1.66199C172.492 1.89687 172.944 2.18394 172.944 2.28833C172.944 2.39272 172.518 2.78418 172.016 3.12345C171.49 3.48882 169.885 4.92418 168.431 6.33344C163.742 10.8222 161.285 12.4925 158.653 12.8578C157.274 13.0666 154.942 12.6229 154.24 12.0749C153.764 11.6834 153.764 11.6834 154.265 11.292C155.143 10.5873 157.725 8.18636 159.455 6.49003C162.489 3.51491 165.247 1.68809 167.403 1.21834C168.606 0.957361 170.712 1.16614 171.941 1.66199ZM181.443 1.74028C182.421 2.26223 182.496 2.10565 180.44 3.77589C179.964 4.16735 178.409 5.60271 177.031 6.95978C172.743 11.0832 170.963 12.2576 168.255 12.7795C166.626 13.0927 164.344 12.7534 163.517 12.0488C163.065 11.6834 163.09 11.6312 163.918 10.9527C164.394 10.5612 165.899 9.17807 167.252 7.89929C172.041 3.33223 173.746 2.10565 176.228 1.37492C177.858 0.905166 180.165 1.06175 181.443 1.74028ZM190.494 1.66199C191.046 1.89687 191.497 2.18394 191.497 2.28833C191.497 2.39272 191.071 2.78418 190.569 3.12345C190.043 3.48882 188.839 4.53272 187.862 5.47223C183.549 9.64782 182.271 10.6917 180.34 11.7095C177.858 12.9883 175.777 13.2493 173.821 12.5446C173.144 12.2837 172.568 11.9444 172.568 11.8139C172.568 11.6573 173.37 10.8222 174.323 9.98709C175.301 9.12587 176.88 7.66441 177.833 6.69881C182.922 1.6098 186.708 0.0961437 190.494 1.66199ZM199.871 1.66199C200.373 1.92297 200.774 2.21004 200.774 2.31443C200.774 2.39272 200.347 2.78418 199.846 3.14955C199.32 3.48882 197.439 5.21125 195.659 6.93369C191.297 11.1615 188.238 12.9883 185.505 12.9883C184.276 12.9883 181.719 12.2054 181.719 11.8139C181.719 11.6573 182.421 10.9266 183.299 10.1698C184.151 9.43904 185.354 8.34295 185.981 7.71661C191.347 2.41882 194.029 0.852971 197.414 1.11395C198.267 1.16614 199.37 1.42712 199.871 1.66199ZM209.047 1.66199C209.599 1.89687 210.05 2.15785 210.05 2.26223C210.05 2.34053 209.599 2.75809 209.047 3.14955C208.496 3.56711 207.167 4.7415 206.114 5.7854C205.036 6.8293 203.707 8.08197 203.156 8.57783C202.604 9.07368 201.877 9.72612 201.526 10.0654C201.175 10.4047 199.946 11.1615 198.818 11.7617C196.938 12.7273 196.537 12.8317 194.932 12.8317C193.052 12.8317 191.121 12.2837 191.121 11.7878C191.121 11.6312 191.698 11.031 192.375 10.4568C193.077 9.8827 194.681 8.36905 195.985 7.09027C199.671 3.46272 202.203 1.71419 204.509 1.21834C205.713 0.957361 207.819 1.16614 209.047 1.66199ZM218.45 1.68809C218.926 1.92297 219.327 2.18394 219.327 2.26223C219.327 2.34053 218.775 2.83638 218.149 3.33223C217.497 3.82808 215.792 5.39393 214.338 6.8032C209.8 11.1615 207.418 12.6229 204.459 12.8839C202.855 13.0144 200.523 12.3881 200.347 11.7878C200.297 11.6312 200.849 11.031 201.576 10.4568C202.303 9.8827 204.133 8.21246 205.663 6.72491C210.151 2.31443 212.884 0.852971 216.018 1.11395C216.87 1.19224 217.973 1.45321 218.45 1.68809ZM227.576 1.66199C228.152 1.89687 228.604 2.18394 228.604 2.28833C228.604 2.39272 228.177 2.78418 227.651 3.14955C227.124 3.48882 225.796 4.6632 224.692 5.7332C220.856 9.51734 219.427 10.6656 217.346 11.7617C215.391 12.7795 215.065 12.8578 213.335 12.8317C211.505 12.8317 209.549 12.2576 209.549 11.7617C209.549 11.6312 210 11.1615 210.552 10.7178C211.128 10.2742 212.708 8.8127 214.112 7.48173C215.516 6.12466 217.271 4.50662 218.048 3.88028C219.452 2.73199 221.884 1.42712 223.088 1.16614C224.116 0.931263 226.473 1.19224 227.576 1.66199ZM236.827 1.6359C237.404 1.87077 237.88 2.15785 237.88 2.26223C237.88 2.36662 237.354 2.86248 236.702 3.35833C236.025 3.82808 234.37 5.34174 232.991 6.67271C228.629 10.9266 226.222 12.4925 223.464 12.91C222.235 13.0666 219.854 12.5968 219.177 12.0749C218.725 11.7095 218.725 11.6573 219.152 11.3181C220.205 10.4568 222.586 8.29075 224.341 6.59442C228.704 2.34053 231.362 0.879068 234.37 1.08785C235.122 1.14004 236.226 1.40102 236.827 1.6359ZM246.154 1.66199C246.731 1.89687 247.157 2.18394 247.107 2.28833C247.057 2.41882 246.405 3.01906 245.628 3.6454C244.85 4.24564 243.246 5.7332 242.067 6.88149C238.106 10.7439 235.824 12.2576 233.217 12.7795C231.587 13.0927 229.306 12.7534 228.453 12.0749C228.002 11.7095 228.027 11.6573 228.854 10.9788C229.331 10.5873 230.735 9.30856 231.938 8.16027C236.978 3.35833 239.284 1.71419 241.591 1.21834C242.845 0.957361 244.926 1.16614 246.154 1.66199ZM255.431 1.66199C255.982 1.89687 256.434 2.18394 256.434 2.28833C256.434 2.39272 256.007 2.78418 255.506 3.14955C254.979 3.51491 253.199 5.10686 251.545 6.69881C247.157 10.9527 244.9 12.4142 242.067 12.8578C240.789 13.0666 238.432 12.6229 237.73 12.0488C237.279 11.6834 237.304 11.6312 238.131 10.9527C238.607 10.5612 240.112 9.17807 241.466 7.89929C246.254 3.33223 247.959 2.10565 250.441 1.37492C251.996 0.931263 253.926 1.03565 255.431 1.66199ZM264.682 1.66199C265.259 1.89687 265.71 2.18394 265.71 2.28833C265.71 2.39272 265.284 2.78418 264.783 3.12345C264.256 3.48882 262.902 4.6893 261.774 5.7854C256.509 10.9527 253.801 12.7012 250.843 12.8839C249.213 13.0144 246.781 12.3359 246.781 11.8139C246.781 11.6573 247.583 10.8483 248.536 9.98709C249.514 9.15197 250.968 7.7949 251.795 6.95978C257.236 1.53151 260.846 0.0439491 264.682 1.66199ZM273.984 1.66199C274.536 1.89687 274.987 2.15785 274.987 2.26223C274.987 2.34053 274.536 2.73199 274.009 3.12345C273.157 3.74979 272.329 4.53272 268.117 8.63002C265.159 11.5007 261.573 13.1971 259.066 12.8839C257.637 12.7273 255.857 12.0488 255.982 11.7095C256.032 11.6051 256.86 10.8222 257.813 9.98709C258.79 9.15197 260.42 7.63832 261.448 6.62052C266.613 1.50541 270.198 0.0961437 273.984 1.66199ZM283.211 1.6359C283.812 1.89687 284.264 2.18394 284.213 2.28833C284.163 2.39272 283.261 3.22784 282.208 4.14125C281.155 5.05467 279.199 6.8293 277.845 8.10807C274.335 11.4225 271.427 13.0144 268.995 12.9622C267.791 12.9622 265.334 12.1271 265.334 11.7617C265.334 11.579 265.735 11.1354 266.212 10.77C266.688 10.4047 268.268 8.96929 269.697 7.56003C273.984 3.41052 276.316 1.76638 278.748 1.21834C280.001 0.931263 281.957 1.11395 283.211 1.6359ZM292.688 1.71419C293.164 1.94907 293.515 2.21004 293.49 2.31443C293.44 2.39272 292.738 3.04516 291.885 3.74979C291.058 4.45442 289.353 6.02027 288.125 7.22076C284.163 11.0832 281.706 12.5707 278.773 12.8839C277.319 13.0405 274.611 12.3359 274.611 11.7878C274.611 11.6312 275.413 10.8483 276.366 10.0132C277.344 9.17807 278.848 7.74271 279.751 6.85539C283.135 3.46272 285.417 1.92297 287.999 1.24443C289.203 0.931263 291.61 1.16614 292.688 1.71419Z" fill="white"/>
</svg>
