<svg width="25" height="25" viewBox="0 0 25 25" fill="none" xmlns="http://www.w3.org/2000/svg">
<path d="M14.8438 18.7013C14.8438 20.6642 14.8389 22.6222 14.8486 24.5851C14.8486 24.7999 14.79 24.8585 14.5752 24.8536C12.9053 24.8438 11.2402 24.8438 9.57031 24.8536C9.34082 24.8536 9.26758 24.7999 9.26758 24.5606C9.27734 20.669 9.27246 16.7823 9.27246 12.8907C9.27246 12.5001 9.31641 12.5489 8.91602 12.544C8.20801 12.544 7.5 12.5392 6.79199 12.5489C6.62109 12.5489 6.57227 12.4952 6.57227 12.3243C6.57715 11.089 6.57715 9.84873 6.57227 8.61338C6.57227 8.44248 6.62109 8.38877 6.79199 8.39365C7.53418 8.40341 8.27148 8.38877 9.01367 8.40342C9.21387 8.4083 9.27734 8.35459 9.27734 8.14463C9.26758 7.10459 9.27734 6.05967 9.27246 5.01963C9.26758 4.15537 9.39941 3.32041 9.83398 2.55869C10.3027 1.72861 11.0059 1.15732 11.875 0.78623C12.6074 0.47373 13.3789 0.327245 14.1699 0.2833C15.7373 0.195409 17.3096 0.268652 18.877 0.239355C19.0527 0.234472 19.0967 0.297948 19.0967 0.463964C19.0918 1.74814 19.0918 3.03721 19.0967 4.32138C19.0967 4.5167 19.0234 4.54599 18.8525 4.54599C17.9492 4.54111 17.0459 4.54111 16.1426 4.54111C15.3906 4.54111 14.8486 5.0831 14.8486 5.82529C14.8486 6.59189 14.8584 7.35361 14.8438 8.12021C14.8389 8.33994 14.9121 8.39365 15.1221 8.39365C16.3574 8.38388 17.5977 8.39365 18.833 8.38388C19.0381 8.38388 19.1064 8.44248 19.082 8.64756C19.0088 9.27744 18.9453 9.90732 18.877 10.5372C18.8135 11.1427 18.7061 11.7433 18.6084 12.3438C18.5791 12.5147 18.5254 12.5538 18.3691 12.5538C17.3096 12.5489 16.2549 12.5489 15.1953 12.5538C14.7803 12.5538 14.8389 12.5001 14.8389 12.92C14.8437 14.8438 14.8438 16.7726 14.8438 18.7013Z" fill="#F24738" fill-opacity="0.75"/>
</svg>
