<svg width="20" height="20" viewBox="0 0 20 20" fill="none" xmlns="http://www.w3.org/2000/svg">
<g clip-path="url(#clip0_294_13499)">
<path d="M19.7266 10.6917C19.7266 12.0902 19.7305 13.4886 19.7266 14.8909C19.7188 16.9222 18.7735 18.4261 17.086 19.4886C16.0977 20.1058 15 20.3792 13.836 20.3792C11.2891 20.3792 8.74612 20.3909 6.19924 20.3753C4.42971 20.3636 2.90628 19.7386 1.69925 18.4261C0.953152 17.6136 0.50784 16.6566 0.378933 15.5511C0.35159 15.3167 0.347683 15.0863 0.347683 14.8519C0.347683 12.0667 0.343777 9.28156 0.347683 6.49641C0.359402 4.46125 1.30471 2.95734 2.99221 1.89484C3.98831 1.27375 5.08987 1.00422 6.26174 1.00422C8.80081 1.00422 11.3399 0.9925 13.8789 1.00813C15.6563 1.01984 17.1836 1.64875 18.3906 2.96906C19.1289 3.77766 19.5703 4.73469 19.6953 5.82844C19.7461 6.25813 19.7227 6.68781 19.7266 7.11359C19.7305 8.30891 19.7266 9.50031 19.7266 10.6917ZM1.7969 10.6917C1.7969 12.1253 1.793 13.555 1.7969 14.9886C1.80081 15.973 2.16018 16.8206 2.83206 17.5238C3.7344 18.4652 4.8594 18.9222 6.15237 18.93C8.71877 18.9456 11.2813 18.9339 13.8477 18.9339C14.6758 18.9339 15.4649 18.7542 16.1836 18.3402C17.5274 17.5706 18.2852 16.4378 18.2852 14.8519C18.2852 12.0316 18.2852 9.21516 18.2852 6.39485C18.2852 5.41828 17.9297 4.57453 17.2617 3.87531C16.3672 2.93 15.2383 2.46516 13.9492 2.45734C11.3555 2.43781 8.76565 2.44953 6.1719 2.44953C5.36331 2.44953 4.59768 2.64094 3.89456 3.03938C2.55471 3.81281 1.793 4.94563 1.7969 6.53156C1.7969 7.91828 1.7969 9.305 1.7969 10.6917Z" fill="#F24738"/>
<path d="M10.0508 14.8325C7.52735 14.8325 5.50391 12.8169 5.50782 10.3013C5.51172 7.85206 7.56251 5.84424 10.0664 5.84815C12.582 5.84815 14.6133 7.86768 14.6094 10.3599C14.6055 12.8286 12.5625 14.8325 10.0508 14.8325ZM10.0508 13.3872C11.7656 13.3872 13.1641 12.0239 13.1641 10.3482C13.1641 8.66456 11.7774 7.29346 10.0664 7.29346C8.35157 7.29346 6.95313 8.65674 6.95313 10.3325C6.95313 12.0161 8.33985 13.3872 10.0508 13.3872Z" fill="#F24738"/>
<path d="M14.1797 5.48096C14.1797 4.92627 14.6055 4.48096 15.1367 4.48096C15.668 4.48096 16.0938 4.93018 16.0938 5.48096C16.0938 6.02393 15.668 6.46924 15.1445 6.47315C14.6133 6.47705 14.1797 6.03565 14.1797 5.48096Z" fill="#F24738"/>
</g>
<defs>
<clipPath id="clip0_294_13499">
<rect width="20" height="20" fill="white"/>
</clipPath>
</defs>
</svg>
