<svg width="25" height="25" viewBox="0 0 25 25" fill="none" xmlns="http://www.w3.org/2000/svg">
<path d="M24.6582 12.5487C24.6582 14.2968 24.6631 16.0448 24.6582 17.7978C24.6484 20.3368 23.4668 22.2167 21.3574 23.5448C20.122 24.3163 18.75 24.6581 17.2949 24.6581C14.1113 24.6581 10.9326 24.6728 7.749 24.6532C5.53708 24.6386 3.63279 23.8573 2.124 22.2167C1.19138 21.2011 0.634738 20.0048 0.473606 18.6229C0.439426 18.33 0.434543 18.0419 0.434543 17.7489C0.434543 14.2675 0.42966 10.786 0.434543 7.30459C0.449192 4.76065 1.63083 2.88076 3.74021 1.55264C4.98532 0.77627 6.36228 0.439355 7.82712 0.439355C11.0009 0.439355 14.1748 0.424707 17.3486 0.444238C19.5703 0.458887 21.4795 1.24502 22.9883 2.89541C23.9111 3.90615 24.4629 5.10244 24.6191 6.46963C24.6826 7.00674 24.6533 7.54385 24.6582 8.07607C24.6631 9.57022 24.6582 11.0595 24.6582 12.5487ZM2.24607 12.5487C2.24607 14.3407 2.24118 16.1278 2.24607 17.9198C2.25095 19.1503 2.70017 20.2099 3.54001 21.0888C4.66794 22.2655 6.07419 22.8368 7.6904 22.8466C10.8984 22.8661 14.1015 22.8515 17.3095 22.8515C18.3447 22.8515 19.331 22.6269 20.2295 22.1093C21.9092 21.1474 22.8564 19.7313 22.8564 17.7489C22.8564 14.2235 22.8564 10.703 22.8564 7.17764C22.8564 5.95693 22.4121 4.90225 21.5771 4.02822C20.459 2.84658 19.0478 2.26553 17.4365 2.25576C14.1943 2.23135 10.957 2.246 7.71482 2.246C6.70407 2.246 5.74704 2.48525 4.86814 2.9833C3.19333 3.9501 2.24118 5.36611 2.24607 7.34854C2.24607 9.08193 2.24607 10.8153 2.24607 12.5487Z" fill="#F24738" fill-opacity="0.75"/>
<path d="M12.5634 17.7246C9.40913 17.7246 6.87983 15.2051 6.88471 12.0606C6.88959 8.99903 9.45307 6.48926 12.583 6.49415C15.7275 6.49415 18.2665 9.01856 18.2617 12.1338C18.2568 15.2197 15.7031 17.7246 12.5634 17.7246ZM12.5634 15.918C14.707 15.918 16.455 14.2139 16.455 12.1191C16.455 10.0147 14.7216 8.30079 12.583 8.30079C10.4394 8.30079 8.69135 10.0049 8.69135 12.0996C8.69135 14.2041 10.4248 15.918 12.5634 15.918Z" fill="#F24738" fill-opacity="0.75"/>
<path d="M17.7246 6.03516C17.7246 5.3418 18.2568 4.78516 18.9209 4.78516C19.585 4.78516 20.1172 5.34668 20.1172 6.03516C20.1172 6.71387 19.585 7.27051 18.9307 7.27539C18.2666 7.28028 17.7246 6.72852 17.7246 6.03516Z" fill="#F24738" fill-opacity="0.75"/>
</svg>
