<svg width="150" height="13" viewBox="0 0 150 13" fill="none" xmlns="http://www.w3.org/2000/svg">
<path d="M1.7049 0.988477C3.68559 1.26369 5.13976 1.81412 5.13976 2.26447C5.11469 2.43961 4.51296 3.01505 3.81095 3.54046C2.38184 4.54124 -0.325936 7.19331 0.50144 6.76797C0.777233 6.61786 1.35389 6.14249 1.75504 5.71716C2.93343 4.4912 5.66628 2.53968 7.27089 1.81412C9.12622 0.963457 11.6836 0.863379 13.4887 1.56392C14.1406 1.81412 14.6671 2.11435 14.617 2.21443C14.5668 2.31451 13.94 2.86494 13.213 3.41537C12.4859 3.94077 11.1821 5.06665 10.3297 5.89229C8.17348 7.94389 5.44063 10.2457 4.3876 10.8962C3.91124 11.1964 2.78299 11.6718 1.8804 11.972C0.977809 12.2723 0.200576 12.5725 0.12536 12.6476C-0.150432 12.9478 2.05591 12.3974 2.9585 11.947L3.91124 11.4466L5.51584 12.0971C7.89769 13.0479 10.455 12.8977 12.8118 11.6968C13.238 11.4716 13.564 11.5467 14.4415 11.997C15.9959 12.8227 19.481 12.8477 21.3363 12.0471L22.615 11.4967L24.1945 12.1472C25.5735 12.6976 26.0498 12.7726 27.6795 12.6476C28.8328 12.5975 30.0614 12.3223 30.7884 11.997L31.9919 11.4716L33.0449 12.0221C33.7469 12.3723 34.7248 12.5975 35.9784 12.6726C37.608 12.7726 38.1095 12.6976 39.5386 12.1221L41.1683 11.4716L42.5221 12.0971C44.3524 12.9478 46.6089 12.9478 48.8904 12.1221L50.5201 11.5217L52.0746 12.1472C53.4034 12.6976 53.9048 12.7726 55.5095 12.6476C56.6377 12.5975 57.8913 12.3223 58.5933 12.0221L59.7466 11.5217L61.3262 12.1472C62.6801 12.6976 63.1815 12.7726 64.7861 12.6476C65.9143 12.5975 67.1679 12.3223 67.87 12.0221L69.0233 11.5217L70.6028 12.1472C71.9567 12.6976 72.4581 12.7726 74.0628 12.6476C75.2161 12.5725 76.4195 12.3223 77.1215 12.0221L78.2498 11.4967L79.7541 12.0971C81.7348 12.9228 83.7907 12.9228 85.997 12.1221L87.6267 11.5217L89.1812 12.1472C90.51 12.6976 91.0114 12.7726 92.6161 12.6476C93.7694 12.5975 94.9979 12.3223 95.725 11.997L96.9284 11.4716L97.9815 12.0471C99.4858 12.8227 103.247 12.8227 105.002 12.0221L106.205 11.4716L107.258 12.0221C108.938 12.8727 111.646 12.9228 113.827 12.1221L115.582 11.4967L116.71 12.0471C118.465 12.8977 121.198 12.9478 123.154 12.1472L124.708 11.5217L126.263 12.1472C127.617 12.6976 128.118 12.7726 129.723 12.6476C130.851 12.5975 132.104 12.3223 132.807 12.0221L133.96 11.5217L135.539 12.1472C136.868 12.6976 137.395 12.7726 138.999 12.6726C140.203 12.5975 141.356 12.3473 142.133 12.0221L143.362 11.4716L144.515 12.0221C145.744 12.6225 148.928 12.9478 149.63 12.5725C149.881 12.4224 149.254 12.3473 147.975 12.3223C145.969 12.2973 143.888 11.7218 144.089 11.2465C144.139 11.1464 145.192 10.1956 146.421 9.16984C148.777 7.16829 150.282 5.71716 149.956 5.71716C149.855 5.71716 148.903 6.51778 147.85 7.46852C143.964 11.0463 140.704 12.6476 138.021 12.3723C136.592 12.2472 134.762 11.6218 134.762 11.2715C134.762 11.1714 135.364 10.621 136.091 10.0705C136.793 9.4951 138.322 8.16906 139.451 7.11825C140.579 6.04241 142.158 4.64132 142.986 3.99081C144.59 2.71482 147.423 1.23867 148.351 1.18863C148.677 1.16361 149.204 1.06353 149.555 0.938437C150.006 0.788321 149.83 0.738281 148.878 0.83836C148.151 0.888398 147.022 1.16361 146.37 1.46385L145.217 1.96424L144.064 1.41381C142.434 0.613184 138.949 0.613184 137.169 1.41381L135.941 1.98925L134.787 1.41381C133.132 0.588165 129.647 0.588165 127.892 1.41381L126.639 1.96424L125.511 1.41381C123.856 0.588165 120.371 0.588165 118.641 1.41381L117.412 1.98925L116.259 1.41381C114.604 0.613184 111.094 0.588165 109.389 1.38879L108.186 1.93922L107.007 1.38879C105.277 0.588165 101.817 0.613184 100.012 1.41381L98.7085 2.01427L97.6305 1.41381C96.0509 0.588165 92.5659 0.588165 90.7858 1.41381L89.5322 1.96424L88.4039 1.41381C86.7492 0.588165 83.2893 0.613184 81.459 1.41381L80.1803 1.98925L79.0772 1.41381C77.4976 0.588165 74.0126 0.588165 72.2325 1.41381L71.004 1.96424L69.8507 1.41381C68.1959 0.588165 65.0117 0.613184 63.0311 1.41381L61.602 1.98925L60.5239 1.41381C58.9443 0.588165 55.4593 0.588165 53.6792 1.41381L52.4256 1.96424L51.2974 1.41381C49.6426 0.588165 46.1576 0.588165 44.4025 1.41381L43.1489 1.96424L42.0207 1.41381C40.366 0.588165 36.906 0.613184 35.0507 1.41381C33.8974 1.93922 33.7219 1.96424 33.1703 1.63898C31.4152 0.538126 28.0807 0.463067 25.7991 1.43883L24.4954 2.01427L23.4173 1.41381C21.8377 0.588165 18.3778 0.588165 16.4974 1.43883C15.5697 1.83914 15.0683 1.93922 14.8677 1.7891C14.6922 1.63898 13.94 1.33875 13.1879 1.08855C11.483 0.538126 9.02593 0.688243 7.24581 1.43883L5.94207 2.01427L4.86397 1.43883C4.06167 1.03852 3.23429 0.863379 1.8804 0.81334L0 0.738281L1.7049 0.988477ZM22.9409 1.61396C23.4925 1.83914 23.9438 2.11435 23.9438 2.21443C23.9438 2.31451 23.5176 2.6898 23.0161 3.01505C22.4896 3.36533 20.885 4.7414 19.4308 6.09245C14.7423 10.3958 12.2853 11.997 9.65273 12.3473C8.27377 12.5475 5.94207 12.1221 5.24005 11.5967C4.76368 11.2214 4.76368 11.2214 5.26512 10.8461C6.14265 10.1706 8.72506 7.86883 10.455 6.24257C13.4887 3.39035 16.2467 1.63898 18.4029 1.18863C19.6063 0.938437 21.7124 1.13859 22.9409 1.61396ZM32.4432 1.68902C33.421 2.18941 33.4962 2.03929 31.4403 3.64054C30.9639 4.01583 29.4095 5.3919 28.0305 6.69292C23.7432 10.646 21.9631 11.7719 19.2553 12.2723C17.6256 12.5725 15.3441 12.2472 14.5167 11.5717C14.0654 11.2214 14.0905 11.1714 14.9179 10.5209C15.3942 10.1456 16.8985 8.81957 18.2524 7.59362C23.0412 3.21521 24.7461 2.03929 27.2282 1.33875C28.8579 0.888398 31.1645 1.03852 32.4432 1.68902ZM41.4942 1.61396C42.0458 1.83914 42.4971 2.11435 42.4971 2.21443C42.4971 2.31451 42.0709 2.6898 41.5694 3.01505C41.0429 3.36533 39.8394 4.36611 38.8616 5.26681C34.5492 9.26992 33.2706 10.2707 31.34 11.2465C28.8579 12.4724 26.7769 12.7226 24.8213 12.0471C24.1444 11.7969 23.5677 11.4716 23.5677 11.3465C23.5677 11.1964 24.37 10.3958 25.3227 9.59518C26.3006 8.76953 27.8801 7.36844 28.8328 6.44272C33.9224 1.56392 37.7083 0.112795 41.4942 1.61396ZM50.8711 1.61396C51.3726 1.86416 51.7737 2.13937 51.7737 2.23945C51.7737 2.31451 51.3475 2.6898 50.8461 3.04007C50.3195 3.36533 48.4391 5.01661 46.659 6.6679C42.2965 10.7211 39.2377 12.4724 36.5049 12.4724C35.2763 12.4724 32.719 11.7218 32.719 11.3465C32.719 11.1964 33.421 10.4959 34.2985 9.77031C35.151 9.06977 36.3544 8.01895 36.9812 7.41848C42.3466 2.33953 45.0294 0.83836 48.4141 1.08855C49.2665 1.13859 50.3697 1.38879 50.8711 1.61396ZM60.0475 1.61396C60.5991 1.83914 61.0504 2.08933 61.0504 2.18941C61.0504 2.26447 60.5991 2.66478 60.0475 3.04007C59.4959 3.44038 58.1671 4.56626 57.1141 5.56704C56.036 6.56782 54.7071 7.76875 54.1556 8.24412C53.604 8.71949 52.8769 9.34498 52.5259 9.67023C52.1749 9.99549 50.9463 10.7211 49.8181 11.2965C47.9377 12.2222 47.5366 12.3223 45.9319 12.3223C44.0515 12.3223 42.121 11.7969 42.121 11.3215C42.121 11.1714 42.6977 10.596 43.3746 10.0455C44.0766 9.4951 45.6812 8.04397 46.985 6.81801C50.6706 3.34031 53.2028 1.664 55.5095 1.18863C56.7129 0.938437 58.819 1.13859 60.0475 1.61396ZM69.4495 1.63898C69.9259 1.86416 70.327 2.11435 70.327 2.18941C70.327 2.26447 69.7754 2.73984 69.1486 3.21521C68.4968 3.69058 66.7919 5.19175 65.3377 6.5428C60.7997 10.7211 58.4178 12.1221 55.4593 12.3723C53.8547 12.4974 51.523 11.897 51.3475 11.3215C51.2974 11.1714 51.8489 10.596 52.576 10.0455C53.3031 9.4951 55.1334 7.89385 56.6628 6.46774C61.1507 2.23945 63.8835 0.83836 67.0175 1.08855C67.87 1.16361 68.9731 1.41381 69.4495 1.63898ZM78.5757 1.61396C79.1524 1.83914 79.6037 2.11435 79.6037 2.21443C79.6037 2.31451 79.1774 2.6898 78.6509 3.04007C78.1244 3.36533 76.7956 4.4912 75.6924 5.517C71.8564 9.14482 70.4273 10.2457 68.3463 11.2965C66.3907 12.2723 66.0648 12.3473 64.3348 12.3223C62.5046 12.3223 60.5489 11.7719 60.5489 11.2965C60.5489 11.1714 61.0002 10.7211 61.5518 10.2957C62.1285 9.87039 63.708 8.4693 65.112 7.19331C66.5161 5.89229 68.2711 4.34109 69.0483 3.74062C70.4524 2.63976 72.8844 1.38879 74.0878 1.13859C75.1158 0.913418 77.4725 1.16361 78.5757 1.61396ZM87.8273 1.58894C88.4039 1.81412 88.8803 2.08933 88.8803 2.18941C88.8803 2.28949 88.3538 2.76486 87.7019 3.24023C87.025 3.69058 85.3702 5.14171 83.9913 6.4177C79.6287 10.4959 77.2218 11.997 74.4639 12.3974C73.2354 12.5475 70.8535 12.0971 70.1766 11.5967C69.7253 11.2465 69.7253 11.1964 70.1515 10.8712C71.2045 10.0455 73.5864 7.96891 75.3414 6.34264C79.704 2.26447 82.3616 0.863379 85.3702 1.06353C86.1224 1.11357 87.2256 1.36377 87.8273 1.58894ZM97.1541 1.61396C97.7307 1.83914 98.157 2.11435 98.1068 2.21443C98.0567 2.33953 97.4048 2.91498 96.6276 3.51544C95.8503 4.09089 94.2457 5.517 93.0673 6.61786C89.106 10.3207 86.8244 11.7719 84.2169 12.2723C82.5872 12.5725 80.3057 12.2472 79.4532 11.5967C79.0019 11.2465 79.027 11.1964 79.8544 10.5459C80.3308 10.1706 81.7348 8.94467 82.9382 7.84381C87.9777 3.24023 90.2843 1.664 92.591 1.18863C93.8446 0.938437 95.9256 1.13859 97.1541 1.61396ZM106.431 1.61396C106.982 1.83914 107.434 2.11435 107.434 2.21443C107.434 2.31451 107.007 2.6898 106.506 3.04007C105.979 3.39035 104.199 4.91653 102.545 6.44272C98.157 10.5209 95.9005 11.922 93.0673 12.3473C91.7887 12.5475 89.4319 12.1221 88.7299 11.5717C88.2786 11.2214 88.3037 11.1714 89.131 10.5209C89.6074 10.1456 91.1117 8.81957 92.4656 7.59362C97.2544 3.21521 98.9593 2.03929 101.441 1.33875C102.996 0.913418 104.926 1.0135 106.431 1.61396ZM115.682 1.61396C116.259 1.83914 116.71 2.11435 116.71 2.21443C116.71 2.31451 116.284 2.6898 115.783 3.01505C115.256 3.36533 113.902 4.51622 112.774 5.56704C107.509 10.5209 104.801 12.1972 101.843 12.3723C100.213 12.4974 97.7809 11.8469 97.7809 11.3465C97.7809 11.1964 98.5832 10.4208 99.5359 9.59518C100.514 8.79455 101.968 7.49354 102.795 6.69292C108.236 1.48887 111.846 0.0627556 115.682 1.61396ZM124.984 1.61396C125.536 1.83914 125.987 2.08933 125.987 2.18941C125.987 2.26447 125.536 2.63976 125.009 3.01505C124.157 3.61552 123.329 4.36611 119.117 8.29416C116.159 11.0463 112.573 12.6726 110.066 12.3723C108.637 12.2222 106.857 11.5717 106.982 11.2465C107.032 11.1464 107.86 10.3958 108.813 9.59518C109.79 8.79455 111.42 7.34342 112.448 6.36766C117.613 1.46385 121.198 0.112795 124.984 1.61396ZM134.211 1.58894C134.812 1.83914 135.264 2.11435 135.213 2.21443C135.163 2.31451 134.261 3.11513 133.208 3.99081C132.155 4.86649 130.199 6.56782 128.845 7.79377C125.335 10.9712 122.427 12.4974 119.995 12.4474C118.791 12.4474 116.334 11.6468 116.334 11.2965C116.334 11.1214 116.735 10.696 117.212 10.3458C117.688 9.99549 119.268 8.61942 120.697 7.26836C124.984 3.29027 127.316 1.71404 129.748 1.18863C131.001 0.913418 132.957 1.08855 134.211 1.58894ZM143.688 1.664C144.164 1.88918 144.515 2.13937 144.49 2.23945C144.44 2.31451 143.738 2.93999 142.885 3.61552C142.058 4.29105 140.353 5.79221 139.125 6.94311C135.163 10.646 132.706 12.0721 129.773 12.3723C128.319 12.5225 125.611 11.8469 125.611 11.3215C125.611 11.1714 126.413 10.4208 127.366 9.62019C128.344 8.81957 129.848 7.4435 130.751 6.59284C134.135 3.34031 136.417 1.86416 138.999 1.21365C140.203 0.913418 142.61 1.13859 143.688 1.664Z" fill="white"/>
</svg>
