<svg width="150" height="13" viewBox="0 0 150 13" fill="none" xmlns="http://www.w3.org/2000/svg">
<path d="M1.7049 1.20186C3.68559 1.47707 5.13976 2.0275 5.13976 2.47785C5.11469 2.65298 4.51296 3.22843 3.81095 3.75384C2.38184 4.75462 -0.325936 7.40668 0.50144 6.98135C0.777233 6.83124 1.35389 6.35587 1.75504 5.93054C2.93343 4.70458 5.66628 2.75306 7.27089 2.0275C9.12622 1.17684 11.6836 1.07676 13.4887 1.7773C14.1406 2.0275 14.6671 2.32773 14.617 2.42781C14.5668 2.52789 13.94 3.07832 13.213 3.62874C12.4859 4.15415 11.1821 5.28003 10.3297 6.10567C8.17348 8.15727 5.44063 10.4591 4.3876 11.1096C3.91124 11.4098 2.78299 11.8852 1.8804 12.1854C0.977809 12.4856 0.200576 12.7859 0.12536 12.8609C-0.150432 13.1612 2.05591 12.6107 2.9585 12.1604L3.91124 11.66L5.51584 12.3105C7.89769 13.2612 10.455 13.1111 12.8118 11.9102C13.238 11.685 13.564 11.7601 14.4415 12.2104C15.9959 13.0361 19.481 13.0611 21.3363 12.2605L22.615 11.71L24.1945 12.3605C25.5735 12.911 26.0498 12.986 27.6795 12.8609C28.8328 12.8109 30.0614 12.5357 30.7884 12.2104L31.9919 11.685L33.0449 12.2354C33.7469 12.5857 34.7248 12.8109 35.9784 12.8859C37.608 12.986 38.1095 12.911 39.5386 12.3355L41.1683 11.685L42.5221 12.3105C44.3524 13.1612 46.6089 13.1612 48.8904 12.3355L50.5201 11.7351L52.0746 12.3605C53.4034 12.911 53.9048 12.986 55.5095 12.8609C56.6377 12.8109 57.8913 12.5357 58.5933 12.2354L59.7466 11.7351L61.3262 12.3605C62.6801 12.911 63.1815 12.986 64.7861 12.8609C65.9143 12.8109 67.1679 12.5357 67.87 12.2354L69.0233 11.7351L70.6028 12.3605C71.9567 12.911 72.4581 12.986 74.0628 12.8609C75.2161 12.7859 76.4195 12.5357 77.1215 12.2354L78.2498 11.71L79.7541 12.3105C81.7348 13.1361 83.7907 13.1361 85.997 12.3355L87.6267 11.7351L89.1812 12.3605C90.51 12.911 91.0114 12.986 92.6161 12.8609C93.7694 12.8109 94.9979 12.5357 95.725 12.2104L96.9284 11.685L97.9815 12.2605C99.4858 13.0361 103.247 13.0361 105.002 12.2354L106.205 11.685L107.258 12.2354C108.938 13.0861 111.646 13.1361 113.827 12.3355L115.582 11.71L116.71 12.2605C118.465 13.1111 121.198 13.1612 123.154 12.3605L124.708 11.7351L126.263 12.3605C127.617 12.911 128.118 12.986 129.723 12.8609C130.851 12.8109 132.104 12.5357 132.807 12.2354L133.96 11.7351L135.539 12.3605C136.868 12.911 137.395 12.986 138.999 12.8859C140.203 12.8109 141.356 12.5607 142.133 12.2354L143.362 11.685L144.515 12.2354C145.744 12.8359 148.928 13.1612 149.63 12.7859C149.881 12.6358 149.254 12.5607 147.975 12.5357C145.969 12.5107 143.888 11.9352 144.089 11.4598C144.139 11.3598 145.192 10.409 146.421 9.38322C148.777 7.38166 150.282 5.93054 149.956 5.93054C149.855 5.93054 148.903 6.73116 147.85 7.6819C143.964 11.2597 140.704 12.8609 138.021 12.5857C136.592 12.4606 134.762 11.8351 134.762 11.4849C134.762 11.3848 135.364 10.8344 136.091 10.2839C136.793 9.70848 138.322 8.38244 139.451 7.33163C140.579 6.25579 142.158 4.8547 142.986 4.20419C144.59 2.9282 147.423 1.45205 148.351 1.40201C148.677 1.37699 149.204 1.27691 149.555 1.15182C150.006 1.0017 149.83 0.95166 148.878 1.05174C148.151 1.10178 147.022 1.37699 146.37 1.67723L145.217 2.17762L144.064 1.62719C142.434 0.826563 138.949 0.826563 137.169 1.62719L135.941 2.20263L134.787 1.62719C133.132 0.801544 129.647 0.801544 127.892 1.62719L126.639 2.17762L125.511 1.62719C123.856 0.801544 120.371 0.801544 118.641 1.62719L117.412 2.20263L116.259 1.62719C114.604 0.826563 111.094 0.801544 109.389 1.60217L108.186 2.1526L107.007 1.60217C105.277 0.801544 101.817 0.826563 100.012 1.62719L98.7085 2.22765L97.6305 1.62719C96.0509 0.801544 92.5659 0.801544 90.7858 1.62719L89.5322 2.17762L88.4039 1.62719C86.7492 0.801544 83.2893 0.826563 81.459 1.62719L80.1803 2.20263L79.0772 1.62719C77.4976 0.801544 74.0126 0.801544 72.2325 1.62719L71.004 2.17762L69.8507 1.62719C68.1959 0.801544 65.0117 0.826563 63.0311 1.62719L61.602 2.20263L60.5239 1.62719C58.9443 0.801544 55.4593 0.801544 53.6792 1.62719L52.4256 2.17762L51.2974 1.62719C49.6426 0.801544 46.1576 0.801544 44.4025 1.62719L43.1489 2.17762L42.0207 1.62719C40.366 0.801544 36.906 0.826563 35.0507 1.62719C33.8974 2.1526 33.7219 2.17762 33.1703 1.85236C31.4152 0.751505 28.0807 0.676446 25.7991 1.65221L24.4954 2.22765L23.4173 1.62719C21.8377 0.801544 18.3778 0.801544 16.4974 1.65221C15.5697 2.05252 15.0683 2.1526 14.8677 2.00248C14.6922 1.85236 13.94 1.55213 13.1879 1.30193C11.483 0.751505 9.02593 0.901622 7.24581 1.65221L5.94207 2.22765L4.86397 1.65221C4.06167 1.25189 3.23429 1.07676 1.8804 1.02672L0 0.95166L1.7049 1.20186ZM22.9409 1.82734C23.4925 2.05252 23.9438 2.32773 23.9438 2.42781C23.9438 2.52789 23.5176 2.90318 23.0161 3.22843C22.4896 3.5787 20.885 4.95478 19.4308 6.30583C14.7423 10.6092 12.2853 12.2104 9.65273 12.5607C8.27377 12.7609 5.94207 12.3355 5.24005 11.8101C4.76368 11.4348 4.76368 11.4348 5.26512 11.0595C6.14265 10.384 8.72506 8.08221 10.455 6.45594C13.4887 3.60372 16.2467 1.85236 18.4029 1.40201C19.6063 1.15182 21.7124 1.35197 22.9409 1.82734ZM32.4432 1.9024C33.421 2.40279 33.4962 2.25267 31.4403 3.85392C30.9639 4.22921 29.4095 5.60528 28.0305 6.90629C23.7432 10.8594 21.9631 11.9852 19.2553 12.4856C17.6256 12.7859 15.3441 12.4606 14.5167 11.7851C14.0654 11.4348 14.0905 11.3848 14.9179 10.7343C15.3942 10.359 16.8985 9.03295 18.2524 7.807C23.0412 3.42859 24.7461 2.25267 27.2282 1.55213C28.8579 1.10178 31.1645 1.25189 32.4432 1.9024ZM41.4942 1.82734C42.0458 2.05252 42.4971 2.32773 42.4971 2.42781C42.4971 2.52789 42.0709 2.90318 41.5694 3.22843C41.0429 3.5787 39.8394 4.57948 38.8616 5.48019C34.5492 9.4833 33.2706 10.4841 31.34 11.4598C28.8579 12.6858 26.7769 12.936 24.8213 12.2605C24.1444 12.0103 23.5677 11.685 23.5677 11.5599C23.5677 11.4098 24.37 10.6092 25.3227 9.80855C26.3006 8.98291 27.8801 7.58182 28.8328 6.6561C33.9224 1.7773 37.7083 0.326174 41.4942 1.82734ZM50.8711 1.82734C51.3726 2.07754 51.7737 2.35275 51.7737 2.45283C51.7737 2.52789 51.3475 2.90318 50.8461 3.25345C50.3195 3.5787 48.4391 5.22999 46.659 6.88128C42.2965 10.9344 39.2377 12.6858 36.5049 12.6858C35.2763 12.6858 32.719 11.9352 32.719 11.5599C32.719 11.4098 33.421 10.7093 34.2985 9.98369C35.151 9.28315 36.3544 8.23233 36.9812 7.63186C42.3466 2.55291 45.0294 1.05174 48.4141 1.30193C49.2665 1.35197 50.3697 1.60217 50.8711 1.82734ZM60.0475 1.82734C60.5991 2.05252 61.0504 2.30271 61.0504 2.40279C61.0504 2.47785 60.5991 2.87816 60.0475 3.25345C59.4959 3.65376 58.1671 4.77964 57.1141 5.78042C56.036 6.7812 54.7071 7.98213 54.1556 8.4575C53.604 8.93287 52.8769 9.55836 52.5259 9.88361C52.1749 10.2089 50.9463 10.9344 49.8181 11.5099C47.9377 12.4356 47.5366 12.5357 45.9319 12.5357C44.0515 12.5357 42.121 12.0103 42.121 11.5349C42.121 11.3848 42.6977 10.8093 43.3746 10.2589C44.0766 9.70848 45.6812 8.25735 46.985 7.03139C50.6706 3.55369 53.2028 1.87738 55.5095 1.40201C56.7129 1.15182 58.819 1.35197 60.0475 1.82734ZM69.4495 1.85236C69.9259 2.07754 70.327 2.32773 70.327 2.40279C70.327 2.47785 69.7754 2.95322 69.1486 3.42859C68.4968 3.90396 66.7919 5.40513 65.3377 6.75618C60.7997 10.9344 58.4178 12.3355 55.4593 12.5857C53.8547 12.7108 51.523 12.1103 51.3475 11.5349C51.2974 11.3848 51.8489 10.8093 52.576 10.2589C53.3031 9.70848 55.1334 8.10723 56.6628 6.68112C61.1507 2.45283 63.8835 1.05174 67.0175 1.30193C67.87 1.37699 68.9731 1.62719 69.4495 1.85236ZM78.5757 1.82734C79.1524 2.05252 79.6037 2.32773 79.6037 2.42781C79.6037 2.52789 79.1774 2.90318 78.6509 3.25345C78.1244 3.5787 76.7956 4.70458 75.6924 5.73038C71.8564 9.3582 70.4273 10.4591 68.3463 11.5099C66.3907 12.4856 66.0648 12.5607 64.3348 12.5357C62.5046 12.5357 60.5489 11.9852 60.5489 11.5099C60.5489 11.3848 61.0002 10.9344 61.5518 10.5091C62.1285 10.0838 63.708 8.68268 65.112 7.40668C66.5161 6.10567 68.2711 4.55446 69.0483 3.954C70.4524 2.85314 72.8844 1.60217 74.0878 1.35197C75.1158 1.1268 77.4725 1.37699 78.5757 1.82734ZM87.8273 1.80232C88.4039 2.0275 88.8803 2.30271 88.8803 2.40279C88.8803 2.50287 88.3538 2.97824 87.7019 3.45361C87.025 3.90396 85.3702 5.35509 83.9913 6.63108C79.6287 10.7093 77.2218 12.2104 74.4639 12.6107C73.2354 12.7609 70.8535 12.3105 70.1766 11.8101C69.7253 11.4598 69.7253 11.4098 70.1515 11.0845C71.2045 10.2589 73.5864 8.18229 75.3414 6.55602C79.704 2.47785 82.3616 1.07676 85.3702 1.27691C86.1224 1.32695 87.2256 1.57715 87.8273 1.80232ZM97.1541 1.82734C97.7307 2.05252 98.157 2.32773 98.1068 2.42781C98.0567 2.55291 97.4048 3.12836 96.6276 3.72882C95.8503 4.30427 94.2457 5.73038 93.0673 6.83124C89.106 10.5341 86.8244 11.9852 84.2169 12.4856C82.5872 12.7859 80.3057 12.4606 79.4532 11.8101C79.0019 11.4598 79.027 11.4098 79.8544 10.7593C80.3308 10.384 81.7348 9.15805 82.9382 8.05719C87.9777 3.45361 90.2843 1.87738 92.591 1.40201C93.8446 1.15182 95.9256 1.35197 97.1541 1.82734ZM106.431 1.82734C106.982 2.05252 107.434 2.32773 107.434 2.42781C107.434 2.52789 107.007 2.90318 106.506 3.25345C105.979 3.60372 104.199 5.12991 102.545 6.6561C98.157 10.7343 95.9005 12.1354 93.0673 12.5607C91.7887 12.7609 89.4319 12.3355 88.7299 11.7851C88.2786 11.4348 88.3037 11.3848 89.131 10.7343C89.6074 10.359 91.1117 9.03295 92.4656 7.807C97.2544 3.42859 98.9593 2.25267 101.441 1.55213C102.996 1.1268 104.926 1.22687 106.431 1.82734ZM115.682 1.82734C116.259 2.05252 116.71 2.32773 116.71 2.42781C116.71 2.52789 116.284 2.90318 115.783 3.22843C115.256 3.5787 113.902 4.7296 112.774 5.78042C107.509 10.7343 104.801 12.4106 101.843 12.5857C100.213 12.7108 97.7809 12.0603 97.7809 11.5599C97.7809 11.4098 98.5832 10.6342 99.5359 9.80855C100.514 9.00793 101.968 7.70692 102.795 6.90629C108.236 1.70224 111.846 0.276134 115.682 1.82734ZM124.984 1.82734C125.536 2.05252 125.987 2.30271 125.987 2.40279C125.987 2.47785 125.536 2.85314 125.009 3.22843C124.157 3.8289 123.329 4.57948 119.117 8.50754C116.159 11.2597 112.573 12.8859 110.066 12.5857C108.637 12.4356 106.857 11.7851 106.982 11.4598C107.032 11.3598 107.86 10.6092 108.813 9.80855C109.79 9.00793 111.42 7.5568 112.448 6.58104C117.613 1.67723 121.198 0.326174 124.984 1.82734ZM134.211 1.80232C134.812 2.05252 135.264 2.32773 135.213 2.42781C135.163 2.52789 134.261 3.32851 133.208 4.20419C132.155 5.07987 130.199 6.7812 128.845 8.00715C125.335 11.1846 122.427 12.7108 119.995 12.6608C118.791 12.6608 116.334 11.8602 116.334 11.5099C116.334 11.3347 116.735 10.9094 117.212 10.5591C117.688 10.2089 119.268 8.83279 120.697 7.48174C124.984 3.50365 127.316 1.92742 129.748 1.40201C131.001 1.1268 132.957 1.30193 134.211 1.80232ZM143.688 1.87738C144.164 2.10256 144.515 2.35275 144.49 2.45283C144.44 2.52789 143.738 3.15337 142.885 3.8289C142.058 4.50443 140.353 6.00559 139.125 7.15649C135.163 10.8594 132.706 12.2855 129.773 12.5857C128.319 12.7358 125.611 12.0603 125.611 11.5349C125.611 11.3848 126.413 10.6342 127.366 9.83357C128.344 9.03295 129.848 7.65688 130.751 6.80622C134.135 3.55369 136.417 2.07754 138.999 1.42703C140.203 1.1268 142.61 1.35197 143.688 1.87738Z" fill="white"/>
</svg>
