<svg width="25" height="11" viewBox="0 0 25 11" fill="none" xmlns="http://www.w3.org/2000/svg">
<path d="M9.6442 0.291586C10.1293 0.399083 10.6089 0.76292 11.1602 1.44374C11.5874 1.97295 12.0036 2.71992 12.3537 3.57714C12.4336 3.77836 12.508 3.94374 12.5163 3.94374C12.5246 3.94374 12.5907 3.80316 12.6652 3.63227C13.164 2.48288 13.5444 1.84892 13.9827 1.44925C14.4678 1.00548 15.0053 0.727088 15.6337 0.592028C15.9755 0.517606 16.6508 0.523119 17.034 0.605809C17.7037 0.749139 18.5444 1.11573 19.0406 1.48508C19.8895 2.11904 20.6007 2.94043 21.1106 3.88861C21.1878 4.03194 21.276 4.17251 21.3063 4.19732C21.3366 4.22213 21.4413 4.26898 21.5378 4.30206C21.637 4.33514 21.8134 4.4261 21.932 4.50879C22.5521 4.93602 22.7203 5.04352 23.3046 5.37703C24.3631 5.98343 24.7958 6.29765 24.9171 6.55123C24.9943 6.7111 24.9832 6.93437 24.8785 7.28993C24.5781 8.296 24.0516 9.24969 23.0814 10.5452C22.8333 10.8732 22.7175 10.9724 22.5714 10.9752C22.4391 10.9807 22.3399 10.9338 22.1194 10.7657C21.8686 10.5727 21.7914 10.5424 21.3835 10.4763C20.438 10.3247 19.8868 10.027 19.4017 9.39853C19.1977 9.13668 19.0957 9.05399 18.7704 8.89137C17.8801 8.44484 16.7142 7.98729 14.9171 7.37814C14.443 7.21551 13.9441 7.03359 13.8063 6.97295C13.2881 6.73867 12.8857 6.4713 12.5659 6.1433C12.4639 6.04131 12.373 5.95587 12.362 5.95587C12.3509 5.95587 12.2655 6.02477 12.1745 6.11022C11.9706 6.2949 11.637 6.52092 11.3697 6.65322C11.2622 6.70559 10.9231 6.83789 10.6117 6.94815C9.71035 7.26788 7.07253 8.36215 6.71145 8.56336C6.24839 8.82246 5.93141 9.0788 5.54552 9.50879C5.08521 10.016 4.56702 10.2888 3.74839 10.4487C3.37077 10.5204 3.25224 10.5727 3.04001 10.7574C2.85809 10.92 2.74508 10.9724 2.59624 10.9724C2.41707 10.9724 2.26823 10.8511 1.99811 10.4873C1.11884 9.30757 1.12159 9.30757 0.931404 8.99886C0.617182 8.48894 0.322254 7.83845 0.123796 7.22654C0.0107861 6.87097 -0.000238419 6.73315 0.0686703 6.62566C0.0962334 6.58431 0.220268 6.44649 0.344305 6.31695C0.52071 6.13503 0.644745 6.03856 0.873522 5.90349C1.53504 5.50934 2.30131 5.00768 2.59348 4.77064C2.80847 4.59699 2.99315 4.47847 3.18885 4.38199C3.56922 4.19732 3.68499 4.07604 3.94409 3.59368C4.29414 2.94594 4.6442 2.45256 5.09899 1.97571C5.71917 1.32521 6.77209 0.633372 7.40054 0.467992C7.65964 0.40184 8.11443 0.388058 8.35423 0.440429C8.50032 0.470748 8.52237 0.467992 8.68224 0.404596C8.88345 0.321906 9.21146 0.250241 9.36305 0.252997C9.42094 0.252997 9.54773 0.272292 9.6442 0.291586ZM4.01024 9.17527C3.07308 9.71551 2.84431 9.86987 2.97937 9.86987C3.00969 9.86987 5.10726 8.67637 5.16515 8.62676C5.17893 8.61573 5.18168 8.58541 5.17066 8.56061C5.15963 8.52753 5.1431 8.52477 5.10726 8.54407C5.0797 8.55785 4.58631 8.84175 4.01024 9.17527ZM19.9446 8.67086C19.9281 8.71772 19.9005 8.70118 21.2071 9.39853C22.0974 9.87262 22.1883 9.91121 22.1883 9.81474C22.1883 9.80096 20.008 8.62951 19.9805 8.62951C19.9695 8.62951 19.9557 8.64881 19.9446 8.67086Z" fill="#F24738"/>
</svg>
