<svg width="25" height="12" viewBox="0 0 25 12" fill="none" xmlns="http://www.w3.org/2000/svg">
<path d="M15.3556 11.1703C14.8704 11.0628 14.3908 10.699 13.8396 10.0182C13.4123 9.48896 12.9961 8.74199 12.6461 7.88477C12.5661 7.68356 12.4917 7.51818 12.4834 7.51818C12.4752 7.51818 12.409 7.65875 12.3346 7.82964C11.8357 8.97904 11.4553 9.613 11.0171 10.0127C10.532 10.4564 9.99447 10.7348 9.36602 10.8699C9.02424 10.9443 8.34894 10.9388 7.9658 10.8561C7.29601 10.7128 6.45533 10.3462 5.95919 9.97683C5.11023 9.34287 4.3991 8.52149 3.88917 7.5733C3.812 7.42997 3.72379 7.2894 3.69347 7.26459C3.66315 7.23979 3.55841 7.19293 3.46194 7.15985C3.36271 7.12678 3.18631 7.03582 3.06778 6.95313C2.44761 6.5259 2.27947 6.4184 1.69513 6.08488C0.636691 5.47849 0.203945 5.16426 0.0826661 4.91068C0.0054885 4.75081 0.0165139 4.52755 0.121255 4.17198C0.421696 3.16592 0.948157 2.21222 1.91839 0.916743C2.16646 0.588738 2.28223 0.48951 2.42831 0.486754C2.56062 0.481241 2.65985 0.528099 2.88035 0.696236C3.13118 0.889179 3.20836 0.919499 3.6163 0.985651C4.56172 1.13725 5.11299 1.43493 5.59811 2.06338C5.80207 2.32523 5.90406 2.40792 6.22931 2.57055C7.11961 3.01707 8.28554 3.47463 10.0827 4.08378C10.5568 4.2464 11.0557 4.42832 11.1935 4.48896C11.7117 4.72325 12.1141 4.99061 12.4338 5.31862C12.5358 5.4206 12.6268 5.50605 12.6378 5.50605C12.6488 5.50605 12.7343 5.43714 12.8252 5.35169C13.0292 5.16702 13.3627 4.941 13.6301 4.80869C13.7376 4.75632 14.0766 4.62402 14.3881 4.51377C15.2894 4.19403 17.9272 3.09976 18.2883 2.89855C18.7514 2.63946 19.0683 2.38312 19.4542 1.95313C19.9145 1.44596 20.4327 1.17308 21.2514 1.01321C21.629 0.94155 21.7475 0.889179 21.9597 0.704505C22.1417 0.541881 22.2547 0.48951 22.4035 0.48951C22.5827 0.48951 22.7315 0.610789 23.0016 0.974626C23.8809 2.15434 23.8782 2.15434 24.0684 2.46305C24.3826 2.97297 24.6775 3.62347 24.876 4.23538C24.989 4.59094 25 4.72876 24.9311 4.83626C24.9035 4.8776 24.7795 5.01542 24.6555 5.14497C24.479 5.32689 24.355 5.42336 24.1262 5.55842C23.4647 5.95258 22.6984 6.45423 22.4063 6.69128C22.1913 6.86492 22.0066 6.98345 21.8109 7.07992C21.4305 7.26459 21.3148 7.38587 21.0557 7.86823C20.7056 8.51597 20.3556 9.00936 19.9008 9.4862C19.2806 10.1367 18.2277 10.8285 17.5992 10.9939C17.3401 11.0601 16.8853 11.0739 16.6455 11.0215C16.4994 10.9912 16.4774 10.9939 16.3175 11.0573C16.1163 11.14 15.7883 11.2117 15.6367 11.2089C15.5788 11.2089 15.452 11.1896 15.3556 11.1703ZM20.9895 2.28664C21.9267 1.7464 22.1554 1.59205 22.0204 1.59205C21.9901 1.59205 19.8925 2.78554 19.8346 2.83516C19.8208 2.84618 19.8181 2.8765 19.8291 2.90131C19.8401 2.93438 19.8567 2.93714 19.8925 2.91785C19.9201 2.90406 20.4134 2.62016 20.9895 2.28664ZM5.05511 2.79105C5.07164 2.7442 5.09921 2.76073 3.7927 2.06338C2.9024 1.58929 2.81144 1.5507 2.81144 1.64717C2.81144 1.66095 4.99171 2.8324 5.01927 2.8324C5.0303 2.8324 5.04408 2.8131 5.05511 2.79105Z" fill="white"/>
</svg>
