<svg width="25" height="17" viewBox="0 0 25 17" fill="none" xmlns="http://www.w3.org/2000/svg">
<g clip-path="url(#clip0_294_12659)">
<path d="M15.3556 5.82967C14.8704 5.93717 14.3908 6.30101 13.8396 6.98182C13.4123 7.51104 12.9961 8.25801 12.6461 9.11523C12.5661 9.31644 12.4917 9.48182 12.4834 9.48182C12.4752 9.48182 12.409 9.34125 12.3346 9.17036C11.8357 8.02096 11.4553 7.387 11.0171 6.98734C10.532 6.54356 9.99447 6.26517 9.36602 6.13011C9.02424 6.05569 8.34894 6.0612 7.9658 6.1439C7.29601 6.28722 6.45533 6.65382 5.95919 7.02317C5.11023 7.65713 4.3991 8.47851 3.88917 9.4267C3.812 9.57003 3.72379 9.7106 3.69347 9.73541C3.66315 9.76021 3.55841 9.80707 3.46194 9.84015C3.36271 9.87322 3.18631 9.96418 3.06778 10.0469C2.44761 10.4741 2.27947 10.5816 1.69513 10.9151C0.636691 11.5215 0.203945 11.8357 0.0826661 12.0893C0.0054885 12.2492 0.0165139 12.4725 0.121255 12.828C0.421696 13.8341 0.948157 14.7878 1.91839 16.0833C2.16646 16.4113 2.28223 16.5105 2.42831 16.5132C2.56062 16.5188 2.65985 16.4719 2.88035 16.3038C3.13118 16.1108 3.20836 16.0805 3.6163 16.0143C4.56172 15.8627 5.11299 15.5651 5.59811 14.9366C5.80207 14.6748 5.90406 14.5921 6.22931 14.4295C7.11961 13.9829 8.28554 13.5254 10.0827 12.9162C10.5568 12.7536 11.0557 12.5717 11.1935 12.511C11.7117 12.2768 12.1141 12.0094 12.4338 11.6814C12.5358 11.5794 12.6268 11.494 12.6378 11.494C12.6488 11.494 12.7343 11.5629 12.8252 11.6483C13.0292 11.833 13.3627 12.059 13.6301 12.1913C13.7376 12.2437 14.0766 12.376 14.3881 12.4862C15.2894 12.806 17.9272 13.9002 18.2883 14.1014C18.7514 14.3605 19.0683 14.6169 19.4542 15.0469C19.9145 15.554 20.4327 15.8269 21.2514 15.9868C21.629 16.0585 21.7475 16.1108 21.9597 16.2955C22.1417 16.4581 22.2547 16.5105 22.4035 16.5105C22.5827 16.5105 22.7315 16.3892 23.0016 16.0254C23.8809 14.8457 23.8782 14.8457 24.0684 14.537C24.3826 14.027 24.6775 13.3765 24.876 12.7646C24.989 12.4091 25 12.2712 24.9311 12.1637C24.9035 12.1224 24.7795 11.9846 24.6555 11.855C24.479 11.6731 24.355 11.5766 24.1262 11.4416C23.4647 11.0474 22.6984 10.5458 22.4063 10.3087C22.1913 10.1351 22.0066 10.0166 21.8109 9.92008C21.4305 9.73541 21.3148 9.61413 21.0557 9.13177C20.7056 8.48403 20.3556 7.99064 19.9008 7.5138C19.2806 6.8633 18.2277 6.17146 17.5992 6.00608C17.3401 5.93993 16.8853 5.92614 16.6455 5.97851C16.4994 6.00883 16.4774 6.00608 16.3175 5.94268C16.1163 5.85999 15.7883 5.78833 15.6367 5.79108C15.5788 5.79108 15.452 5.81038 15.3556 5.82967ZM20.9895 14.7134C21.9267 15.2536 22.1554 15.408 22.0204 15.408C21.9901 15.408 19.8925 14.2145 19.8346 14.1648C19.8208 14.1538 19.8181 14.1235 19.8291 14.0987C19.8401 14.0656 19.8567 14.0629 19.8925 14.0822C19.9201 14.0959 20.4134 14.3798 20.9895 14.7134ZM5.05511 14.2089C5.07164 14.2558 5.09921 14.2393 3.7927 14.9366C2.9024 15.4107 2.81144 15.4493 2.81144 15.3528C2.81144 15.339 4.99171 14.1676 5.01927 14.1676C5.0303 14.1676 5.04408 14.1869 5.05511 14.2089Z" fill="black"/>
<g clip-path="url(#clip1_294_12659)">
<path d="M15.3556 5.82967C14.8704 5.93717 14.3908 6.30101 13.8396 6.98182C13.4123 7.51104 12.9961 8.25801 12.6461 9.11523C12.5661 9.31644 12.4917 9.48182 12.4834 9.48182C12.4752 9.48182 12.409 9.34125 12.3346 9.17036C11.8357 8.02096 11.4553 7.387 11.0171 6.98734C10.532 6.54356 9.99447 6.26517 9.36602 6.13011C9.02424 6.05569 8.34894 6.0612 7.9658 6.1439C7.29601 6.28722 6.45533 6.65382 5.95919 7.02317C5.11023 7.65713 4.3991 8.47851 3.88917 9.4267C3.812 9.57003 3.72379 9.7106 3.69347 9.73541C3.66315 9.76021 3.55841 9.80707 3.46194 9.84015C3.36271 9.87322 3.18631 9.96418 3.06778 10.0469C2.44761 10.4741 2.27947 10.5816 1.69513 10.9151C0.636691 11.5215 0.203945 11.8357 0.0826661 12.0893C0.0054885 12.2492 0.0165139 12.4725 0.121255 12.828C0.421696 13.8341 0.948157 14.7878 1.91839 16.0833C2.16646 16.4113 2.28223 16.5105 2.42831 16.5132C2.56062 16.5188 2.65985 16.4719 2.88035 16.3038C3.13118 16.1108 3.20836 16.0805 3.6163 16.0143C4.56172 15.8627 5.11299 15.5651 5.59811 14.9366C5.80207 14.6748 5.90406 14.5921 6.22931 14.4295C7.11961 13.9829 8.28554 13.5254 10.0827 12.9162C10.5568 12.7536 11.0557 12.5717 11.1935 12.511C11.7117 12.2768 12.1141 12.0094 12.4338 11.6814C12.5358 11.5794 12.6268 11.494 12.6378 11.494C12.6488 11.494 12.7343 11.5629 12.8252 11.6483C13.0292 11.833 13.3627 12.059 13.6301 12.1913C13.7376 12.2437 14.0766 12.376 14.3881 12.4862C15.2894 12.806 17.9272 13.9002 18.2883 14.1014C18.7514 14.3605 19.0683 14.6169 19.4542 15.0469C19.9145 15.554 20.4327 15.8269 21.2514 15.9868C21.629 16.0585 21.7475 16.1108 21.9597 16.2955C22.1417 16.4581 22.2547 16.5105 22.4035 16.5105C22.5827 16.5105 22.7315 16.3892 23.0016 16.0254C23.8809 14.8457 23.8782 14.8457 24.0684 14.537C24.3826 14.027 24.6775 13.3765 24.876 12.7646C24.989 12.4091 25 12.2712 24.9311 12.1637C24.9035 12.1224 24.7795 11.9846 24.6555 11.855C24.479 11.6731 24.355 11.5766 24.1262 11.4416C23.4647 11.0474 22.6984 10.5458 22.4063 10.3087C22.1913 10.1351 22.0066 10.0166 21.8109 9.92008C21.4305 9.73541 21.3148 9.61413 21.0557 9.13177C20.7056 8.48403 20.3556 7.99064 19.9008 7.5138C19.2806 6.8633 18.2277 6.17146 17.5992 6.00608C17.3401 5.93993 16.8853 5.92614 16.6455 5.97851C16.4994 6.00883 16.4774 6.00608 16.3175 5.94268C16.1163 5.85999 15.7883 5.78833 15.6367 5.79108C15.5788 5.79108 15.452 5.81038 15.3556 5.82967ZM20.9895 14.7134C21.9267 15.2536 22.1554 15.408 22.0204 15.408C21.9901 15.408 19.8925 14.2145 19.8346 14.1648C19.8208 14.1538 19.8181 14.1235 19.8291 14.0987C19.8401 14.0656 19.8567 14.0629 19.8925 14.0822C19.9201 14.0959 20.4134 14.3798 20.9895 14.7134ZM5.05511 14.2089C5.07164 14.2558 5.09921 14.2393 3.7927 14.9366C2.9024 15.4107 2.81144 15.4493 2.81144 15.3528C2.81144 15.339 4.99171 14.1676 5.01927 14.1676C5.0303 14.1676 5.04408 14.1869 5.05511 14.2089Z" fill="black"/>
</g>
</g>
<defs>
<clipPath id="clip0_294_12659">
<rect width="25" height="16.538" fill="white"/>
</clipPath>
<clipPath id="clip1_294_12659">
<rect width="25" height="16.538" fill="white"/>
</clipPath>
</defs>
</svg>
