<svg width="25" height="25" viewBox="0 0 25 25" fill="none" xmlns="http://www.w3.org/2000/svg">
<path d="M12.5195 3.62312C13.6279 3.62312 14.7314 3.60359 15.8398 3.628C17.2461 3.6573 18.6523 3.71101 20.0537 3.77449C20.6348 3.80378 21.2256 3.81843 21.8018 3.93074C23.1738 4.19441 23.9893 5.03913 24.3652 6.37214C24.5654 7.08015 24.6387 7.80769 24.7022 8.53523C24.8731 10.4932 24.8389 12.4512 24.79 14.4093C24.7607 15.5665 24.7119 16.7335 24.419 17.8663C24.2969 18.3301 24.1553 18.794 23.8867 19.1993C23.3984 19.9366 22.6953 20.3565 21.8359 20.5128C21.0986 20.6495 20.3516 20.6641 19.6045 20.6983C18.2227 20.7618 16.8408 20.7911 15.459 20.8253C13.8232 20.8692 12.1875 20.8594 10.5566 20.8448C9.2334 20.8302 7.90528 20.8009 6.58203 20.7471C5.46387 20.7032 4.34082 20.6837 3.23731 20.4688C2.62695 20.3516 2.08496 20.0977 1.61621 19.6778C1.17676 19.2774 0.952149 18.7598 0.786133 18.213C0.429688 17.0411 0.405273 15.8301 0.332031 14.6192C0.249023 13.2032 0.273438 11.7872 0.307617 10.376C0.336914 9.18464 0.390625 7.98835 0.639649 6.81648C0.786133 6.12312 0.986328 5.43464 1.48926 4.90242C2.10938 4.24812 2.90039 3.93562 3.79395 3.87214C4.86328 3.7989 5.9375 3.75007 7.00684 3.70613C8.84278 3.628 10.6836 3.60359 12.5195 3.62312ZM16.5772 11.9825C16.5576 11.9239 16.5039 11.9141 16.4648 11.8946C15.3174 11.2891 14.165 10.6837 13.0127 10.0782C12.0996 9.59968 11.1865 9.11628 10.2734 8.63288C10.0195 8.50105 10.0147 8.50593 10.0147 8.7989C10.0147 10.9034 10.0147 13.0079 10.0147 15.1173C10.0147 15.1563 10.0147 15.2003 10.0147 15.2393C10.0098 15.3663 10.0586 15.4053 10.1758 15.3419C10.3174 15.2637 10.459 15.1856 10.6055 15.1075C12.5293 14.1114 14.458 13.1104 16.3818 12.1143C16.4502 12.0753 16.5381 12.0606 16.5772 11.9825Z" fill="#F24738" fill-opacity="0.75"/>
</svg>
